<?xml version="1.0" encoding="utf-8"?>
<!-- Generator: Adobe Illustrator 24.2.1, SVG Export Plug-In . SVG Version: 6.00 Build 0)  -->
<svg version="1.1" id="Layer_1" xmlns="http://www.w3.org/2000/svg" xmlns:xlink="http://www.w3.org/1999/xlink" x="0px" y="0px"
	 viewBox="0 0 1000 1000" style="enable-background:new 0 0 1000 1000;" xml:space="preserve">
<style type="text/css">
	.st0{fill:none;stroke:#000000;stroke-width:2;stroke-miterlimit:10;}
	.st1{fill:none;stroke:#000000;stroke-miterlimit:10;}
	.st2{fill:none;stroke:#000000;stroke-width:3;stroke-miterlimit:10;}
</style>
<g>
	<g>
		<g>
			<path d="M467.67,513.92c0.02,13.63,11.13,24.72,24.78,24.72c13.58,0,24.64-10.98,24.77-24.52c-0.01-0.11-0.03-0.22-0.03-0.33
				v-77.36c0-13.64-11.11-24.73-24.76-24.73c-13.65,0-24.76,11.09-24.76,24.73L467.67,513.92L467.67,513.92z"/>
		</g>
		<g>
			<path d="M577.92,537.23c-0.51,0.32-1.09,0.47-1.67,0.47c-0.49,0-0.98-0.11-1.42-0.34c-0.92-0.46-1.56-1.33-1.72-2.34
				c-0.03-0.21-0.05-0.42-0.04-0.63v-25.23v-173.4c0-13.64-11.11-24.73-24.76-24.73c-13.65,0-24.76,11.09-24.76,24.73v177.66
				c0.02,0.15,0.05,0.3,0.05,0.45c0,17.16-13.97,31.13-31.15,31.13c-12.25,0-22.84-7.12-27.93-17.42
				c-4.96,10.56-15.68,17.92-28.1,17.92c-17.12,0-31.05-13.92-31.05-31.03c0-0.19,0.02-0.37,0.06-0.55v-65.91c0-0.01,0-0.03,0-0.04
				c0-0.03,0-0.05,0-0.08v-73.71c0-0.01,0-0.03,0-0.04c0-13.64-11.11-24.73-24.76-24.73c-13.65,0-24.75,11.09-24.76,24.72
				c0,0,0,0.01,0,0.01v176.53c0,0,0,0.01,0,0.02c0.01,71.58,58.3,129.81,129.94,129.81c25.26,0,49.74-7.24,70.81-20.95
				c11.86-7.71,22.33-17.25,31.13-28.35c13.33-17.95,85.72-119.34,86.45-120.37c0.01-0.02,0.03-0.03,0.04-0.05
				c0.01-0.02,0.02-0.04,0.04-0.06c7.64-9.81,6.76-23.85-2.05-32.65c-9.65-9.64-25.36-9.64-35.01,0l-58.63,58.58
				C578.42,536.87,578.19,537.07,577.92,537.23z"/>
		</g>
		<g>
			<path d="M411.74,514.57c0.06,13.55,11.1,24.56,24.68,24.56c13.61,0,24.68-11.06,24.68-24.66c0-0.38,0.08-0.74,0.2-1.07v-65.42
				c0-13.64-11.11-24.73-24.76-24.73c-13.62,0-24.71,11.05-24.75,24.65v66.18C411.79,514.24,411.77,514.41,411.74,514.57z"/>
		</g>
	</g>
	<g>
		<path d="M256.79,237.58c-2.03,2.02-4.32,3.55-6.86,4.58c-2.54,1.04-5.22,1.46-8.02,1.26c-2.8-0.19-5.64-1.1-8.5-2.72l2.95-7.52
			c1.74,1.09,3.51,1.7,5.31,1.85c1.81,0.15,3.52-0.1,5.15-0.76c1.62-0.66,3.05-1.61,4.28-2.83c1.3-1.29,2.28-2.72,2.94-4.28
			c0.66-1.56,0.85-3.17,0.59-4.8c-0.27-1.63-1.15-3.2-2.63-4.7c-1.61-1.62-3.34-2.43-5.18-2.42c-1.84,0.01-4.33,0.87-7.46,2.57
			l-5.59,3.07c-2.46,1.38-4.86,2.28-7.17,2.72c-2.31,0.43-4.59,0.28-6.82-0.48c-2.23-0.76-4.39-2.18-6.45-4.26
			c-1.82-1.83-3.13-3.81-3.96-5.93c-0.81-2.12-1.17-4.29-1.06-6.51c0.12-2.22,0.67-4.38,1.66-6.48c0.99-2.1,2.39-4.04,4.19-5.83
			c1.66-1.66,3.57-2.97,5.71-3.93c2.14-0.97,4.44-1.47,6.89-1.51c2.45-0.03,4.96,0.58,7.52,1.83l-2.9,7.47
			c-1.44-0.64-2.85-0.95-4.25-0.93c-1.4,0.02-2.73,0.33-3.99,0.92c-1.27,0.59-2.42,1.4-3.45,2.42c-1.17,1.16-2.05,2.46-2.68,3.9
			c-0.62,1.44-0.81,2.89-0.58,4.36c0.23,1.47,0.97,2.82,2.21,4.07c1.45,1.46,3.02,2.18,4.74,2.18c1.71-0.01,3.49-0.51,5.34-1.52
			l5.88-3.36c2.75-1.49,5.37-2.58,7.86-3.27c2.49-0.69,4.96-0.71,7.41-0.04c2.45,0.67,4.93,2.27,7.45,4.81
			c2.73,2.75,4.42,5.69,5.09,8.83c0.67,3.14,0.49,6.21-0.53,9.21C260.84,232.56,259.15,235.23,256.79,237.58z"/>
		<path d="M302.48,199.49c-3.04,2.13-6.21,3.14-9.51,3.05c-3.3-0.09-6.52-1.13-9.66-3.12c-3.14-1.99-5.99-4.81-8.55-8.47
			c-2.65-3.79-4.31-7.53-4.97-11.23c-0.67-3.69-0.44-7.05,0.67-10.09c1.11-3.03,3.02-5.49,5.71-7.38c2.27-1.59,4.69-2.46,7.25-2.6
			c2.56-0.14,5.11,0.33,7.65,1.41c2.54,1.09,4.94,2.68,7.21,4.78s4.31,4.59,6.1,7.49l-21.92,15.34c1.57,1.84,3.12,3.22,4.64,4.17
			c1.52,0.94,2.94,1.52,4.27,1.74c1.33,0.22,2.56,0.18,3.7-0.12c1.14-0.3,2.11-0.73,2.92-1.29c1.5-1.05,2.56-2.24,3.21-3.59
			c0.63-1.34,0.92-2.7,0.87-4.1l6.93-1.63c0.46,3.12,0.14,6.05-0.98,8.79C306.89,195.41,305.05,197.69,302.48,199.49z
			 M278.68,183.17l15.75-11.02c-1.18-1.61-2.57-2.87-4.17-3.8c-1.6-0.93-3.24-1.42-4.94-1.48c-1.71-0.06-3.31,0.43-4.81,1.48
			c-1.19,0.83-2.18,1.95-2.94,3.35c-0.77,1.4-1.11,3.05-1.01,4.95C276.66,178.55,277.37,180.73,278.68,183.17z"/>
		<path d="M337.76,176.66l-19.46-39.07l5.04-2.51l5.31,6.4c-0.18-2.14-0.04-4.06,0.4-5.75c0.44-1.7,1.19-3.2,2.27-4.52
			c1.07-1.32,2.46-2.37,4.17-3.16l4.24,8.51c-2.7,1.21-4.6,2.71-5.7,4.51c-1.1,1.79-1.5,3.89-1.19,6.29
			c0.31,2.41,1.23,5.16,2.78,8.25l8.82,17.72L337.76,176.66z"/>
		<path d="M387.24,155.44l-25.39-37.62l7.56-2.47l18.27,28.28l-2.01-33.59l7.56-2.47l1.7,45.36L387.24,155.44z"/>
		<path d="M433.94,143.21l-6.42-35.77l-5.12,0.92l-1.29-7.19l12.54-2.25l7.71,42.96L433.94,143.21z M428.03,91.89
			c-1.34,0.24-2.61-0.16-3.79-1.2c-1.19-1.04-1.93-2.39-2.23-4.07c-0.31-1.73-0.09-3.27,0.67-4.63c0.76-1.36,1.8-2.16,3.15-2.4
			c1.38-0.25,2.65,0.13,3.82,1.14c1.16,1.02,1.89,2.39,2.2,4.12c0.3,1.68,0.09,3.2-0.64,4.59
			C430.47,90.82,429.41,91.64,428.03,91.89z"/>
		<path d="M504.81,136.7l22.64-57.07l8.98,0.76l12.64,60.06l-8.7-0.74l-2.34-12.3l-20.13-1.71l-4.39,11.73L504.81,136.7z
			 M520.93,117.4l15.5,1.31l-5.44-28.28L520.93,117.4z"/>
		<path d="M571.97,144.44l12.58-41.79l5.73,1.72l-0.41,6.49c0.95-1.06,2.05-1.97,3.28-2.74c1.23-0.76,2.6-1.27,4.1-1.52
			c1.5-0.25,3.08-0.13,4.74,0.37c2.61,0.79,4.5,2.04,5.7,3.78s1.83,3.88,1.9,6.41c2.06-2.14,4.24-3.49,6.54-4.05
			c2.3-0.56,4.62-0.49,6.96,0.21c2.7,0.81,4.62,2.13,5.79,3.95c1.17,1.82,1.74,4.07,1.71,6.77c-0.03,2.69-0.54,5.72-1.56,9.09
			l-7.86,26.12l-7.15-2.15l7.12-23.68c0.62-2.08,1.06-4.05,1.3-5.91c0.24-1.85,0.06-3.46-0.54-4.8c-0.6-1.35-1.86-2.31-3.8-2.89
			c-2.29-0.69-4.41-0.15-6.37,1.62c-1.95,1.77-3.56,4.76-4.83,8.98l-6.77,22.5l-7.15-2.15l7.12-23.68c0.63-2.08,1.06-4.05,1.3-5.91
			c0.24-1.85,0.07-3.45-0.51-4.79c-0.58-1.34-1.84-2.3-3.76-2.88c-1.53-0.46-3-0.37-4.42,0.28c-1.42,0.64-2.71,1.85-3.88,3.61
			s-2.17,4.02-2.99,6.77l-6.74,22.41L571.97,144.44z"/>
		<path d="M658.94,178.8c-1.9-1.02-3.55-2.41-4.96-4.16c-1.4-1.75-2.39-3.84-2.94-6.27c-0.56-2.43-0.61-5.15-0.14-8.16
			c0.47-3.01,1.63-6.25,3.49-9.71c1.86-3.46,3.91-6.22,6.16-8.28c2.25-2.05,4.54-3.52,6.87-4.4c2.33-0.88,4.62-1.22,6.86-1.01
			c2.23,0.2,4.31,0.81,6.21,1.83c1.9,1.02,3.55,2.4,4.93,4.14s2.35,3.83,2.91,6.26c0.56,2.43,0.61,5.15,0.14,8.16
			c-0.47,3.01-1.63,6.25-3.49,9.71c-1.86,3.46-3.91,6.22-6.16,8.28c-2.25,2.05-4.54,3.52-6.87,4.4c-2.34,0.88-4.61,1.22-6.82,1.03
			C662.9,180.42,660.84,179.81,658.94,178.8z M662.6,171.97c1.45,0.78,3.04,1.05,4.79,0.82c1.75-0.23,3.54-1.11,5.37-2.65
			c1.84-1.55,3.59-3.87,5.26-6.97c1.66-3.1,2.62-5.83,2.88-8.19c0.25-2.36,0-4.35-0.76-5.95c-0.76-1.61-1.87-2.8-3.32-3.58
			c-1.45-0.77-3.06-1.04-4.84-0.8c-1.78,0.24-3.58,1.13-5.41,2.64c-1.83,1.52-3.57,3.83-5.23,6.93s-2.63,5.84-2.9,8.23
			c-0.27,2.39,0,4.37,0.8,5.97C660.04,170.01,661.16,171.19,662.6,171.97z"/>
		<path d="M696.08,200.5l26.11-34.97l4.51,3.37l-3.32,7.63c1.84-1.12,3.61-1.87,5.32-2.23c1.71-0.37,3.4-0.38,5.06-0.01
			c1.66,0.36,3.23,1.13,4.7,2.3l-5.68,7.61c-2.3-1.86-4.5-2.88-6.59-3.05c-2.1-0.18-4.15,0.42-6.16,1.77
			c-2.01,1.35-4.05,3.42-6.12,6.19l-11.84,15.87L696.08,200.5z"/>
		<path d="M740.05,239.29c-2.62-2.62-4.17-5.57-4.65-8.83c-0.48-3.27-0.02-6.62,1.4-10.05c1.42-3.44,3.7-6.73,6.86-9.88
			c3.28-3.27,6.68-5.56,10.2-6.85c3.51-1.29,6.87-1.65,10.05-1.08c3.18,0.57,5.93,2.02,8.25,4.34c1.95,1.96,3.23,4.19,3.82,6.68
			c0.58,2.5,0.56,5.09-0.07,7.78c-0.63,2.69-1.78,5.33-3.46,7.93c-1.67,2.6-3.78,5.04-6.32,7.31l-18.9-18.93
			c-1.54,1.87-2.64,3.63-3.3,5.29c-0.66,1.66-0.99,3.16-0.97,4.5c0.01,1.34,0.26,2.55,0.75,3.62c0.49,1.07,1.09,1.95,1.78,2.65
			c1.29,1.3,2.65,2.14,4.08,2.54s2.83,0.44,4.19,0.14l2.81,6.55c-2.99,0.99-5.93,1.18-8.83,0.56
			C744.83,242.93,742.27,241.51,740.05,239.29z M752.01,213.03l13.58,13.6c1.38-1.44,2.39-3.03,3.02-4.76
			c0.64-1.73,0.84-3.44,0.61-5.13c-0.24-1.69-1-3.18-2.3-4.47c-1.02-1.03-2.3-1.8-3.8-2.32c-1.51-0.52-3.19-0.56-5.04-0.14
			C756.21,210.24,754.19,211.31,752.01,213.03z"/>
	</g>
	<g>
		<path d="M162.14,750.22l67.95-25.97l8.66,9.76l-33.93,64.3l-8.38-9.45l7.19-12.92l-19.4-21.87l-13.69,5.6L162.14,750.22z
			 M193.84,750.02l14.94,16.84l16.5-29.76L193.84,750.02z"/>
		<path d="M244.96,832.61c-1.89-1.45-3.44-3.06-4.64-4.84c-1.2-1.78-2.06-3.68-2.57-5.69c-0.51-2.01-0.63-4.03-0.36-6.06l-6.16,4.52
			l-6.87-5.27l43.89-57.25l8.57,6.57l-17.79,23.21c1.92-0.84,3.93-1.27,6.01-1.3c2.08-0.03,4.13,0.3,6.16,1
			c2.03,0.7,3.99,1.77,5.88,3.22c3.17,2.44,5.46,5.49,6.84,9.16c1.38,3.67,1.66,7.65,0.85,11.95c-0.81,4.3-2.91,8.66-6.3,13.08
			c-3.39,4.42-7.06,7.59-11.02,9.52c-3.96,1.93-7.91,2.71-11.83,2.36C251.69,836.44,248.14,835.05,244.96,832.61z M247.85,823.66
			c3.12,2.39,6.61,3.12,10.46,2.18c3.85-0.94,7.47-3.62,10.86-8.05c3.39-4.42,5.02-8.58,4.89-12.49c-0.13-3.91-1.75-7.06-4.88-9.46
			c-3.13-2.4-6.57-3.17-10.34-2.34c-3.77,0.84-7.4,3.55-10.92,8.13c-2.31,3.02-3.81,5.92-4.48,8.69c-0.68,2.78-0.62,5.3,0.16,7.58
			S245.79,822.08,247.85,823.66z"/>
		<path d="M297.51,864.93c-3.02-1.69-5.25-3.32-6.66-4.89c-1.42-1.57-2.03-3.37-1.82-5.4c0.2-2.03,1.13-4.52,2.79-7.49l29.03-51.82
			l9.42,5.28l-28.03,50.05c-1.09,1.96-1.5,3.44-1.21,4.46c0.28,1.02,1.56,2.16,3.81,3.42l3.29,1.84l-4.48,8L297.51,864.93z"/>
		<path d="M345.53,888.47c-5-1.95-8.87-4.69-11.62-8.2s-4.36-7.5-4.84-11.96c-0.48-4.45,0.22-9.09,2.09-13.89
			c1.95-5,4.71-8.92,8.26-11.76c3.55-2.84,7.5-4.56,11.86-5.16c4.35-0.6,8.74-0.03,13.17,1.7c3.74,1.46,6.78,3.49,9.16,6.1
			c2.37,2.6,4.04,5.56,5.02,8.85c0.97,3.3,1.26,6.75,0.88,10.35c-0.39,3.6-1.42,7.2-3.12,10.76l-36.05-14.09
			c-0.7,2.72-0.92,5.15-0.66,7.29c0.26,2.14,0.84,3.97,1.74,5.49c0.9,1.52,2.01,2.79,3.32,3.81c1.31,1.03,2.63,1.8,3.96,2.32
			c2.47,0.96,4.73,1.39,6.77,1.28c2.05-0.11,3.83-0.6,5.34-1.47l7.81,6.33c-3.08,2.3-6.65,3.66-10.68,4.09
			C353.91,890.74,349.77,890.13,345.53,888.47z M343.26,854l25.91,10.13c0.78-2.18,0.99-4.37,0.66-6.58s-1.21-4.23-2.61-6.05
			c-1.41-1.82-3.34-3.22-5.81-4.18c-1.96-0.76-4.05-1.15-6.28-1.14c-2.23,0-4.36,0.61-6.4,1.82
			C346.68,849.19,344.86,851.2,343.26,854z"/>
		<path d="M423.59,910.29c-6.61-1.22-11.99-3.71-16.13-7.48c-4.14-3.77-6.98-8.48-8.53-14.16c-1.55-5.67-1.68-11.98-0.4-18.93
			c1.28-6.95,3.72-12.76,7.31-17.45c3.59-4.69,8.06-8.03,13.4-10.02s11.25-2.38,17.73-1.19c5.88,1.09,10.86,3.39,14.94,6.9
			c4.08,3.51,6.85,7.89,8.3,13.13l-10.8,1.84c-0.94-3.14-2.68-5.81-5.21-8c-2.53-2.19-5.7-3.64-9.51-4.34
			c-3.61-0.66-7.07-0.32-10.4,1.04c-3.32,1.36-6.2,3.74-8.62,7.16c-2.43,3.42-4.13,7.81-5.12,13.15c-0.99,5.35-0.99,10.04,0,14.09
			c0.98,4.05,2.81,7.34,5.49,9.87c2.68,2.53,5.92,4.14,9.72,4.85c2.54,0.47,4.93,0.54,7.16,0.23c2.23-0.32,4.3-1.02,6.19-2.12
			c1.89-1.1,3.53-2.56,4.9-4.38l9.43,5.57c-3.37,4.42-7.67,7.51-12.9,9.28C435.32,911.09,429.66,911.41,423.59,910.29z"/>
		<path d="M500.86,916.75c-3.13,0.05-6.19-0.41-9.19-1.38c-3-0.97-5.71-2.52-8.12-4.66c-2.42-2.13-4.38-4.85-5.89-8.16
			c-1.52-3.3-2.31-7.23-2.38-11.78c-0.07-4.55,0.59-8.5,2-11.85c1.41-3.35,3.28-6.13,5.63-8.34c2.34-2.21,4.99-3.85,7.97-4.92
			c2.97-1.07,6.02-1.63,9.14-1.68c3.12-0.05,6.17,0.41,9.14,1.38c2.97,0.97,5.66,2.52,8.07,4.66c2.42,2.13,4.38,4.86,5.89,8.16
			c1.52,3.31,2.31,7.23,2.39,11.78c0.07,4.55-0.6,8.5-2,11.85c-1.41,3.35-3.28,6.13-5.63,8.34c-2.34,2.21-4.98,3.85-7.91,4.92
			C507.02,916.14,503.99,916.7,500.86,916.75z M500.71,907.78c2.38-0.04,4.59-0.67,6.65-1.89s3.7-3.13,4.95-5.74
			c1.25-2.6,1.84-5.94,1.77-10.01c-0.06-4.07-0.76-7.38-2.09-9.9c-1.33-2.53-3.04-4.38-5.13-5.57c-2.09-1.19-4.33-1.76-6.7-1.73
			c-2.38,0.04-4.61,0.69-6.69,1.94c-2.09,1.26-3.75,3.17-5,5.73c-1.25,2.57-1.85,5.89-1.77,9.96c0.06,4.07,0.76,7.39,2.09,9.95
			s3.06,4.42,5.19,5.57C496.09,907.26,498.34,907.82,500.71,907.78z"/>
		<path d="M551.81,912.23l-7.85-49.92l8.05-1.27l4.17,8.83c0.78-2.46,1.88-4.58,3.28-6.35c1.41-1.77,3.16-3.23,5.24-4.38
			c2.09-1.15,4.48-1.9,7.18-2.26l1.71,10.87c-4.25,0.53-7.55,1.64-9.9,3.31c-2.35,1.68-3.89,3.91-4.62,6.71
			c-0.73,2.8-0.78,6.18-0.16,10.14l3.56,22.64L551.81,912.23z"/>
		<path d="M624.55,897.28c-5.12,1.6-9.85,1.89-14.2,0.86s-8.1-3.13-11.26-6.3c-3.16-3.17-5.51-7.23-7.06-12.15
			c-1.6-5.12-1.9-9.9-0.91-14.34c0.99-4.44,3-8.25,6.03-11.44c3.02-3.18,6.8-5.49,11.34-6.91c3.82-1.2,7.48-1.52,10.95-0.97
			c3.48,0.55,6.63,1.8,9.45,3.77c2.82,1.97,5.21,4.48,7.16,7.53c1.95,3.06,3.38,6.5,4.3,10.34l-36.95,11.56
			c1.16,2.56,2.51,4.59,4.04,6.1c1.54,1.51,3.14,2.58,4.79,3.2c1.65,0.62,3.32,0.92,4.98,0.9c1.66-0.02,3.18-0.24,4.54-0.67
			c2.53-0.79,4.56-1.87,6.09-3.24c1.53-1.37,2.61-2.86,3.24-4.49l10.05,0.06c-0.97,3.72-2.9,7.01-5.78,9.87
			C632.5,893.81,628.89,895.92,624.55,897.28z M601.21,871.8l26.55-8.3c-0.75-2.18-1.95-4.03-3.6-5.54
			c-1.65-1.52-3.59-2.55-5.83-3.09c-2.23-0.54-4.61-0.42-7.15,0.37c-2.01,0.63-3.88,1.64-5.61,3.04c-1.73,1.4-3.02,3.2-3.86,5.42
			C600.88,865.91,600.71,868.61,601.21,871.8z"/>
		<path d="M675.23,877.55c-1.97,0.92-3.96,1-5.96,0.25c-2-0.76-3.44-2.08-4.33-4c-0.89-1.9-0.98-3.87-0.27-5.88
			c0.71-2.02,2.05-3.48,4.02-4.4c1.9-0.89,3.86-0.95,5.86-0.2c2,0.75,3.45,2.08,4.34,3.99c0.89,1.91,0.98,3.87,0.27,5.88
			C678.44,875.21,677.14,876.66,675.23,877.55z"/>
		<path d="M723.73,850.92c-2.64,1.68-5.49,2.9-8.55,3.65c-3.07,0.75-6.19,0.85-9.36,0.29c-3.17-0.56-6.27-1.84-9.29-3.86
			c-3.02-2.02-5.76-4.95-8.2-8.79c-2.45-3.84-3.95-7.55-4.51-11.14c-0.56-3.59-0.42-6.94,0.42-10.05c0.84-3.11,2.24-5.9,4.21-8.36
			c1.97-2.47,4.27-4.54,6.91-6.22c2.64-1.68,5.47-2.89,8.51-3.61c3.04-0.73,6.15-0.82,9.32-0.27c3.17,0.56,6.27,1.85,9.29,3.86
			c3.02,2.02,5.76,4.95,8.2,8.79c2.45,3.84,3.95,7.55,4.51,11.14c0.56,3.6,0.42,6.95-0.42,10.05c-0.83,3.12-2.23,5.89-4.17,8.34
			C728.65,847.18,726.36,849.24,723.73,850.92z M718.9,843.36c2.01-1.28,3.56-2.98,4.67-5.09c1.11-2.12,1.51-4.61,1.21-7.48
			c-0.3-2.87-1.55-6.02-3.74-9.46c-2.19-3.44-4.52-5.88-6.97-7.34c-2.46-1.45-4.89-2.13-7.29-2.05c-2.41,0.09-4.61,0.76-6.61,2.04
			c-2,1.28-3.57,3-4.68,5.16c-1.12,2.17-1.54,4.67-1.26,7.51c0.28,2.84,1.52,5.98,3.71,9.42c2.19,3.44,4.53,5.9,7,7.38
			c2.47,1.48,4.92,2.16,7.34,2.03C714.69,845.35,716.9,844.64,718.9,843.36z"/>
		<path d="M764.96,819.58l-33.26-38.05l6.14-5.36l8.24,5.25c-0.65-2.5-0.85-4.87-0.61-7.12c0.24-2.25,0.95-4.41,2.1-6.5
			c1.15-2.09,2.77-4,4.86-5.74l7.24,8.29c-3.31,2.71-5.51,5.41-6.61,8.08c-1.09,2.67-1.21,5.38-0.33,8.14
			c0.87,2.75,2.63,5.64,5.26,8.66l15.09,17.26L764.96,819.58z"/>
		<path d="M832.68,780.51c-1.76,2.08-3.81,3.92-6.16,5.53s-4.91,2.7-7.68,3.23c-2.78,0.54-5.6,0.35-8.47-0.57l3.54-9.69
			c2.08,0.7,4.2,0.64,6.35-0.16c2.15-0.8,4.17-2.32,6.06-4.55c1.4-1.66,2.39-3.42,2.96-5.3c0.57-1.88,0.53-3.78-0.1-5.7
			c-0.64-1.92-2.1-3.85-4.38-5.78l-6.68-5.67c0.93,3.11,1.09,6.14,0.49,9.1c-0.6,2.97-2.06,5.82-4.39,8.57
			c-2.42,2.85-5.43,4.9-9.04,6.16c-3.61,1.26-7.5,1.46-11.66,0.6c-4.17-0.86-8.27-3.01-12.31-6.44c-4.25-3.6-7.15-7.4-8.71-11.39
			c-1.56-3.99-2.01-7.85-1.35-11.56c0.66-3.71,2.17-6.97,4.54-9.77c2.42-2.85,5.09-4.82,8.01-5.9c2.92-1.09,5.95-1.37,9.07-0.85
			l-4.38-6.65l5.54-6.53l37.14,31.5c3.78,3.21,6.26,6.58,7.45,10.12c1.18,3.54,1.26,7.15,0.24,10.82
			C837.75,773.31,835.71,776.94,832.68,780.51z M809.64,761.37c1.54-1.81,2.54-3.81,3.01-6c0.47-2.18,0.18-4.52-0.86-7.01
			c-1.04-2.49-3.08-5.01-6.08-7.56c-3.05-2.59-5.88-4.19-8.48-4.79c-2.61-0.61-4.96-0.51-7.06,0.29c-2.1,0.8-3.92,2.11-5.46,3.92
			c-2.46,2.9-3.47,6.21-3.02,9.94c0.45,3.72,2.7,7.29,6.74,10.72c4.09,3.47,8.04,5.15,11.83,5.03
			C804.05,765.78,807.18,764.27,809.64,761.37z"/>
	</g>
	<g>
		<path d="M500,966.5C242.77,966.5,33.5,757.23,33.5,500C33.5,242.77,242.77,33.5,500,33.5S966.5,242.77,966.5,500
			C966.5,757.23,757.23,966.5,500,966.5z M500,47.4C250.43,47.4,47.39,250.43,47.39,500c0,249.57,203.04,452.6,452.61,452.6
			S952.61,749.57,952.61,500C952.61,250.43,749.57,47.4,500,47.4z"/>
	</g>
	<g>
		<path d="M495.6,818.75c-178.09,0-322.98-144.89-322.98-322.98S317.51,172.78,495.6,172.78s322.98,144.89,322.98,322.99
			S673.7,818.75,495.6,818.75z M495.6,186.67c-170.43,0-309.09,138.66-309.09,309.1c0,170.43,138.66,309.09,309.09,309.09
			S804.69,666.2,804.69,495.77C804.69,325.33,666.04,186.67,495.6,186.67z"/>
	</g>
</g>
</svg>
