<svg id="Layer_1" data-name="Layer 1" xmlns="http://www.w3.org/2000/svg" viewBox="0 0 1000 1000">
  <text transform="translate(520.47 914.53)" font-size="95.71" fill="#fff" font-family="AtkinsonHyperlegibleNext-SemiBold, Atkinson Hyperlegible Next" font-weight="600"> </text>
  <g>
    <path d="M472,518.19a24.83,24.83,0,0,0,49.66.2c0-.11,0-.22,0-.33V440.52a24.82,24.82,0,0,0-49.63,0v77.67Z"/>
    <path d="M582.51,541.56a3.19,3.19,0,0,1-4.83-2.21,2.67,2.67,0,0,1,0-.63V339.63a24.82,24.82,0,0,0-49.63,0V517.7a2.3,2.3,0,0,1,0,.45,31.2,31.2,0,0,1-59.21,13.74,31.11,31.11,0,0,1-59.3-13.14,3.31,3.31,0,0,1,.06-.55V452.14s0,0,0,0,0-.05,0-.08V378.14s0,0,0,0a24.81,24.81,0,0,0-49.62,0v177c0,71.74,58.43,130.11,130.24,130.11a130.16,130.16,0,0,0,102.17-49.42c13.37-18,85.92-119.62,86.65-120.64l0-.05,0-.06A24.8,24.8,0,0,0,642,482.26L583.2,541A3,3,0,0,1,582.51,541.56Z"/>
    <path d="M416,518.85a24.74,24.74,0,0,0,49.47-.1,3.23,3.23,0,0,1,.2-1.08V452.1A24.81,24.81,0,0,0,416,452v66.33A4.23,4.23,0,0,1,416,518.85Z"/>
  </g>
  <g>
    <path d="M260.71,241.16a20.78,20.78,0,0,1-6.88,4.58,17.83,17.83,0,0,1-8,1.27,20.08,20.08,0,0,1-8.52-2.73l3-7.53a11.79,11.79,0,0,0,5.32,1.86,10.93,10.93,0,0,0,5.15-.77A12.92,12.92,0,0,0,255,235a13.45,13.45,0,0,0,2.95-4.29,8.58,8.58,0,0,0,.59-4.81,8.82,8.82,0,0,0-2.64-4.72,7.2,7.2,0,0,0-5.19-2.42c-1.84,0-4.34.87-7.48,2.57l-5.6,3.07a24,24,0,0,1-7.19,2.73,13.37,13.37,0,0,1-6.84-.49,17,17,0,0,1-6.47-4.26,17.31,17.31,0,0,1-4-5.95,16,16,0,0,1-1.06-6.53,17.3,17.3,0,0,1,1.66-6.49,20.91,20.91,0,0,1,4.2-5.84,19.52,19.52,0,0,1,5.73-3.94,17.11,17.11,0,0,1,6.9-1.51,16.6,16.6,0,0,1,7.54,1.84l-2.91,7.48a10.07,10.07,0,0,0-4.26-.93,9.73,9.73,0,0,0-4,.93,12,12,0,0,0-3.45,2.43,12.51,12.51,0,0,0-2.69,3.9,7.82,7.82,0,0,0-.58,4.37,7.4,7.4,0,0,0,2.21,4.08,6.59,6.59,0,0,0,4.75,2.19,11.27,11.27,0,0,0,5.35-1.52l5.9-3.37a37.52,37.52,0,0,1,7.88-3.28,13.75,13.75,0,0,1,7.42,0,17.39,17.39,0,0,1,7.47,4.82,17.94,17.94,0,0,1,5.1,8.85,17.12,17.12,0,0,1-.53,9.23A20.62,20.62,0,0,1,260.71,241.16Z"/>
    <path d="M306.54,203A15.62,15.62,0,0,1,297,206a18.84,18.84,0,0,1-9.68-3.13,30.76,30.76,0,0,1-8.56-8.49,28.7,28.7,0,0,1-5-11.25,19.22,19.22,0,0,1,.68-10.11,15.24,15.24,0,0,1,5.73-7.39,13.89,13.89,0,0,1,7.26-2.61,16.87,16.87,0,0,1,7.66,1.42,25.29,25.29,0,0,1,7.23,4.8,36,36,0,0,1,6.11,7.5l-22,15.37a20.93,20.93,0,0,0,4.64,4.18,11.89,11.89,0,0,0,4.28,1.74,9,9,0,0,0,3.71-.11,8.9,8.9,0,0,0,2.92-1.3,9.34,9.34,0,0,0,3.22-3.59,8.57,8.57,0,0,0,.87-4.11l6.95-1.63a16.65,16.65,0,0,1-1,8.81A15.2,15.2,0,0,1,306.54,203ZM282.7,186.61l15.78-11a13.68,13.68,0,0,0-4.17-3.81,10.61,10.61,0,0,0-4.95-1.49,7.77,7.77,0,0,0-4.82,1.49,9.71,9.71,0,0,0-3,3.35,9.13,9.13,0,0,0-1,5A15.94,15.94,0,0,0,282.7,186.61Z"/>
    <path d="M341.86,180.14,322.37,141l5.05-2.52,5.32,6.42a17.5,17.5,0,0,1,.4-5.77,11.68,11.68,0,0,1,2.28-4.53,11.35,11.35,0,0,1,4.18-3.16l4.24,8.52a12.45,12.45,0,0,0-5.71,4.52,9.5,9.5,0,0,0-1.2,6.31,26.78,26.78,0,0,0,2.78,8.27l8.84,17.77Z"/>
    <path d="M391.42,158.89,366,121.18l7.58-2.48,18.3,28.35-2-33.67,7.58-2.47,1.69,45.46Z"/>
    <path d="M438.3,146.62l-6.43-35.85-5.14.92-1.29-7.21L438,102.23l7.72,43.06Zm-5.92-51.44a4.4,4.4,0,0,1-3.8-1.2A7.35,7.35,0,0,1,427,85.25,4.37,4.37,0,0,1,434,84a6.86,6.86,0,0,1,2.21,4.13,7,7,0,0,1-.64,4.6A4.38,4.38,0,0,1,432.38,95.18Z"/>
    <path d="M509.23,140.11l22.7-57.2,9,.76,12.67,60.2-8.72-.74-2.35-12.32-20.18-1.72L518,140.85Zm16.16-19.34,15.53,1.32-5.45-28.35Z"/>
    <path d="M576.7,147.91,589.33,106l5.74,1.73-.41,6.51a15,15,0,0,1,3.29-2.74,11.36,11.36,0,0,1,4.11-1.52,10.43,10.43,0,0,1,4.75.37,10.21,10.21,0,0,1,5.71,3.79,11.76,11.76,0,0,1,1.89,6.43,13.75,13.75,0,0,1,6.57-4.06,13.11,13.11,0,0,1,7,.21,10,10,0,0,1,5.81,4,12.08,12.08,0,0,1,1.71,6.78,32.65,32.65,0,0,1-1.56,9.11L626,162.77l-7.16-2.16L626,136.88a36.6,36.6,0,0,0,1.3-5.91,8.92,8.92,0,0,0-.54-4.82,5.61,5.61,0,0,0-3.8-2.89,6.28,6.28,0,0,0-6.39,1.62q-2.94,2.66-4.84,9l-6.8,22.55-7.16-2.16,7.15-23.73a37.89,37.89,0,0,0,1.31-5.92,9,9,0,0,0-.51-4.8,5.51,5.51,0,0,0-3.77-2.89,6.1,6.1,0,0,0-4.43.28,9.63,9.63,0,0,0-3.89,3.62,26.06,26.06,0,0,0-3,6.78l-6.76,22.46Z"/>
    <path d="M663.77,182.34a16,16,0,0,1-5-4.17,15.35,15.35,0,0,1-2.95-6.28,21.41,21.41,0,0,1-.13-8.18,35.2,35.2,0,0,1,9.67-18,21.54,21.54,0,0,1,6.89-4.41,15.45,15.45,0,0,1,6.87-1,15.88,15.88,0,0,1,6.22,1.84,15.59,15.59,0,0,1,4.94,4.15,15.4,15.4,0,0,1,2.92,6.27,21.6,21.6,0,0,1,.14,8.18,35.23,35.23,0,0,1-9.68,18,21.54,21.54,0,0,1-6.89,4.41,15.51,15.51,0,0,1-6.84,1A15.87,15.87,0,0,1,663.77,182.34Zm3.67-6.84a7.75,7.75,0,0,0,4.8.83,10.75,10.75,0,0,0,5.39-2.66,23.57,23.57,0,0,0,5.27-7,23.2,23.2,0,0,0,2.89-8.21,11,11,0,0,0-.77-6,7.58,7.58,0,0,0-3.32-3.58,7.79,7.79,0,0,0-4.85-.81,11,11,0,0,0-5.42,2.65,23.2,23.2,0,0,0-5.25,6.94,23.58,23.58,0,0,0-2.91,8.25,10.55,10.55,0,0,0,.8,6A7.92,7.92,0,0,0,667.44,175.5Z"/>
    <path d="M701.09,204.16l26.19-35,4.52,3.38-3.33,7.64a17.3,17.3,0,0,1,5.32-2.24,11.76,11.76,0,0,1,5.08,0,11.4,11.4,0,0,1,4.7,2.3l-5.7,7.63a12.3,12.3,0,0,0-6.61-3.06,9.41,9.41,0,0,0-6.17,1.77,26.67,26.67,0,0,0-6.13,6.2l-11.88,15.9Z"/>
    <path d="M745.17,243.1a15.64,15.64,0,0,1-4.66-8.86,18.88,18.88,0,0,1,1.41-10.07,30.52,30.52,0,0,1,6.88-9.9A28.56,28.56,0,0,1,759,207.41a19.16,19.16,0,0,1,10.07-1.08,15.25,15.25,0,0,1,8.27,4.36,13.87,13.87,0,0,1,3.82,6.7,17,17,0,0,1-.07,7.8,25.5,25.5,0,0,1-3.48,7.94,35.66,35.66,0,0,1-6.34,7.32l-18.93-19a20.73,20.73,0,0,0-3.31,5.29,11.81,11.81,0,0,0-1,4.52,9.07,9.07,0,0,0,2.54,6.29,9.29,9.29,0,0,0,4.09,2.54,8.57,8.57,0,0,0,4.2.15l2.8,6.56a16.53,16.53,0,0,1-8.84.56A15.17,15.17,0,0,1,745.17,243.1Zm12-26.32,13.6,13.64a13.75,13.75,0,0,0,3-4.76,10.56,10.56,0,0,0,.61-5.14,7.77,7.77,0,0,0-2.3-4.49,9.69,9.69,0,0,0-3.81-2.32,9.07,9.07,0,0,0-5.06-.14A16,16,0,0,0,757.17,216.78Z"/>
  </g>
  <g>
    <path d="M91.23,597.16,164,601l4,12.45-57.22,45.13L107,646.49l11.84-8.92-8.9-27.93-14.82-.42Zm29.12,12.69,6.85,21.5,27.21-20.56Z"/>
    <path d="M119.28,676.84l31.83,4,13.34-27,5.84,10.89-8.64,17.38L181,684.66l5.84,10.88L157,691.75,142.7,720.48l-5.84-10.88,9.5-19.24-21.23-2.63Z"/>
    <path d="M154.86,739.12l32-1.43,8.58-28.85,7.6,9.74-5.56,18.6,19.45-.8,7.6,9.74-30.06,1.31-9.18,30.73-7.6-9.74,6.1-20.56-21.37,1Z"/>
    <path d="M216.62,810.85a26.58,26.58,0,0,1-7.85-11.9,23.11,23.11,0,0,1-.15-12.93,29.33,29.33,0,0,1,7-12.2,27.55,27.55,0,0,1,12-8,23.91,23.91,0,0,1,13-.47,26,26,0,0,1,11.67,6.4,23.91,23.91,0,0,1,6.32,9,22.32,22.32,0,0,1,1.45,10.09,26.56,26.56,0,0,1-3,10,33.54,33.54,0,0,1-6.84,8.91l-28.5-26.33a20.07,20.07,0,0,0-3.29,6.56,13.9,13.9,0,0,0-.38,5.76,13.38,13.38,0,0,0,1.7,4.77,16.1,16.1,0,0,0,2.86,3.61,16.29,16.29,0,0,0,5.85,3.67,11.79,11.79,0,0,0,5.52.58l5,8.76a21.35,21.35,0,0,1-11.46-.08A26.17,26.17,0,0,1,216.62,810.85Zm10.47-33,20.47,18.91a13.26,13.26,0,0,0,3-5.9,13.09,13.09,0,0,0-.22-6.6,13.26,13.26,0,0,0-3.89-6,17,17,0,0,0-5.45-3.37,12.45,12.45,0,0,0-6.63-.64A16,16,0,0,0,227.09,777.85Z"/>
    <path d="M271.48,853.51a31.27,31.27,0,0,1-7.12-6.37,23.52,23.52,0,0,1-4.34-7.91,17.4,17.4,0,0,1-.43-8.76l10.24,2.43a9.22,9.22,0,0,0,.83,7.5,16.47,16.47,0,0,0,5.55,6.07,15.44,15.44,0,0,0,7.61,2.73c2.51.14,4.35-.67,5.5-2.44a4.83,4.83,0,0,0,.39-4.87,22.48,22.48,0,0,0-4.93-6.28l-4.94-4.94a33.12,33.12,0,0,1-5.25-6.62,14.22,14.22,0,0,1-2.1-6.86,12.3,12.3,0,0,1,2.25-7.07,12.12,12.12,0,0,1,6.81-5.19,17.75,17.75,0,0,1,9.17-.1,29.78,29.78,0,0,1,9.53,4.17,29.36,29.36,0,0,1,8.91,9,16.07,16.07,0,0,1,2.37,11.49l-10.08-2.32a9.12,9.12,0,0,0-1.25-6.2,15.66,15.66,0,0,0-5-5.11,13.1,13.1,0,0,0-6.7-2.44,5,5,0,0,0-4.63,2.22,4.23,4.23,0,0,0-.46,4.16,18.29,18.29,0,0,0,3.8,5.11l5,5a47,47,0,0,1,6.34,7.57,14,14,0,0,1,2.45,7.16,12.88,12.88,0,0,1-2.46,7.48,13.16,13.16,0,0,1-7.2,5.6,18.46,18.46,0,0,1-9.6.31A30.54,30.54,0,0,1,271.48,853.51Z"/>
    <path d="M330.15,885.51a31.21,31.21,0,0,1-8-5.16,23.71,23.71,0,0,1-5.54-7.12,17.6,17.6,0,0,1-1.8-8.59l10.5.79a9.2,9.2,0,0,0,2,7.27,16.51,16.51,0,0,0,6.44,5.12,15.45,15.45,0,0,0,8,1.49c2.5-.26,4.18-1.36,5-3.28a4.86,4.86,0,0,0-.39-4.88,22.33,22.33,0,0,0-5.85-5.41l-5.66-4.1a33.36,33.36,0,0,1-6.24-5.7,14.2,14.2,0,0,1-3.15-6.45,13.25,13.25,0,0,1,7-13.53,17.72,17.72,0,0,1,9-1.56,30.9,30.9,0,0,1,20.29,10,16.07,16.07,0,0,1,4.15,11l-10.32-.7a9,9,0,0,0-2.22-5.91,15.61,15.61,0,0,0-5.76-4.26,13.09,13.09,0,0,0-7-1.35,5,5,0,0,0-4.22,2.93,4.21,4.21,0,0,0,.2,4.17,18.33,18.33,0,0,0,4.56,4.45l5.75,4.14a46.19,46.19,0,0,1,7.46,6.47,14,14,0,0,1,3.55,6.68,13,13,0,0,1-1.24,7.78,13.25,13.25,0,0,1-6.23,6.66,18.43,18.43,0,0,1-9.43,1.82A30.33,30.33,0,0,1,330.15,885.51Z"/>
    <path d="M370.71,901.17,411.86,841l12.7,3.1,8.76,72.34-12.31-3-1.45-14.75-28.47-6.94L383,904.16Zm26-18.27,21.92,5.35-3.39-33.94Z"/>
    <path d="M486.3,921.7a21,21,0,0,1-6.59-1.33,17.75,17.75,0,0,1-5.37-3.21,16.12,16.12,0,0,1-3.77-4.78l-2.48,7.25-8.67-.4L462.77,847l10.81.51-1.36,29.27a15.73,15.73,0,0,1,4.2-4.51,18.1,18.1,0,0,1,5.65-2.7,21,21,0,0,1,6.67-.71,20.44,20.44,0,0,1,10.88,3.62,21.92,21.92,0,0,1,7.54,9.34,35.88,35.88,0,0,1-1.32,28.52,22.28,22.28,0,0,1-8.38,8.71A20.29,20.29,0,0,1,486.3,921.7Zm-2.76-9a11.82,11.82,0,0,0,9.86-4.2c2.62-3,4.07-7.25,4.32-12.83s-.78-9.94-3.12-13.08a12.62,12.62,0,0,0-19.28-1q-3.93,4.26-4.33,12.93a24,24,0,0,0,1.29,9.72,13.39,13.39,0,0,0,4.47,6.14A12.2,12.2,0,0,0,483.54,912.68Z"/>
    <path d="M536.88,919.33l-3.84-42-7.53.69-.77-8.44,18.41-1.69,4.61,50.44Zm-.77-60a7.26,7.26,0,0,1-6.22-11.89,7.07,7.07,0,0,1,4.9-2.55,7.25,7.25,0,1,1,1.32,14.44Z"/>
    <path d="M588.75,911.81a26.15,26.15,0,0,1-8.26.58,6.78,6.78,0,0,1-4.9-2.94,20.33,20.33,0,0,1-2.72-7.53L561.41,843.5,572,841.42l11.07,56.41q.64,3.31,2,4.2c.88.59,2.59.63,5.13.14l3.71-.73,1.77,9Z"/>
    <path d="M608,845.09a7.26,7.26,0,0,1-8.5-10.38,7.08,7.08,0,0,1,4.28-3.49,7,7,0,0,1,5.54.5,7.32,7.32,0,0,1,3,9.82A6.91,6.91,0,0,1,608,845.09Zm12.94,58.62-12.29-40.35-7.23,2.2L599,857.45l17.68-5.38,14.75,48.45Z"/>
    <path d="M673.9,884.17a25.8,25.8,0,0,1-7.9,2.29,6.59,6.59,0,0,1-5.34-1.92,22.75,22.75,0,0,1-4.35-7.14l-11.48-26.63-7.78,3.36-3.36-7.79,7.79-3.35-5-11.63,9.94-4.28,5,11.62,9.84-4.24,3.36,7.78-9.85,4.25L665.32,871q1.62,3.75,3.09,4.34c1,.39,2.54.13,4.67-.79l4.59-2,3.64,8.44Z"/>
    <path d="M713,883.55l-4.57-7.5,3.4-2.07a22.08,22.08,0,0,0,3.89-2.84,4.85,4.85,0,0,0,1.47-3,14.29,14.29,0,0,0-.4-4.48l-.36-1.58-42.29-33.54,10-6.11,29.1,24.84L704,810.33l10-6.1,11.51,54.08a56,56,0,0,1,1.13,7.74,15.32,15.32,0,0,1-.64,5.82,11.84,11.84,0,0,1-3,4.7,32.09,32.09,0,0,1-5.91,4.43Z"/>
    <path d="M762.88,847.82l-4-13.32a7.77,7.77,0,0,1-9.55-2.16,7.69,7.69,0,0,1,7.13-12.3,7.52,7.52,0,0,1,5.12,2.94,5.9,5.9,0,0,1,.78,1.33c.23.52.43,1,.62,1.47l5.22,17.91Z"/>
    <path d="M815.92,780.53,809.24,775l6.13-7.39-39.12-32.49-6.13,7.39L763.44,737l19.77-23.8,6.67,5.55-6.13,7.38,39.12,32.49,6.14-7.38,6.68,5.54Z"/>
    <path d="M852.82,733.33l-43.55-25.87L813.7,700l7.42,1.91a16.69,16.69,0,0,1-1.76-5.14,17.6,17.6,0,0,1,.08-6.13,20.6,20.6,0,0,1,2.72-6.88q3.18-5.35,7.17-7.26a13.59,13.59,0,0,1,8.68-1,30.9,30.9,0,0,1,10,4l27.22,16.16-5.58,9.4L844.94,690.4a37.46,37.46,0,0,0-6.33-3,9.07,9.07,0,0,0-5.81-.31c-1.83.54-3.52,2.13-5.09,4.76a10.66,10.66,0,0,0-1.07,9.7q1.86,4.79,8.53,8.74L858.34,724Z"/>
    <path d="M897.07,648.51a24.34,24.34,0,0,1-7.89,11A22.46,22.46,0,0,1,877.41,664a31,31,0,0,1-13.87-2.19A29,29,0,0,1,851.93,654a23.09,23.09,0,0,1-5.61-11.49A25,25,0,0,1,847.89,629a23.69,23.69,0,0,1,4.39-7.34,22.85,22.85,0,0,1,6.37-5,20,20,0,0,1,7.76-2.28l-.16,10.11a11,11,0,0,0-6.12,2.42,13,13,0,0,0-4.53,12.26,13.09,13.09,0,0,0,3.46,6.68,22.18,22.18,0,0,0,8.57,5.3,22.47,22.47,0,0,0,10,1.75,13.32,13.32,0,0,0,7.17-2.61,12.48,12.48,0,0,0,4.06-5.44,12.91,12.91,0,0,0,.82-6.85,11.82,11.82,0,0,0-2.6-5.64l6.64-7.63a22.58,22.58,0,0,1,3.93,7.3,24.11,24.11,0,0,1,1.12,8.19A25.62,25.62,0,0,1,897.07,648.51Z"/>
    <path d="M912,600.1a7.46,7.46,0,0,1-3.54,4.82,7.75,7.75,0,0,1-10.61-2.59,7.36,7.36,0,0,1-.93-5.9,7.29,7.29,0,0,1,3.51-4.71A7.75,7.75,0,0,1,911,594.3,7.3,7.3,0,0,1,912,600.1Z"/>
  </g>
  <path d="M500,967.56C242.18,967.56,32.43,757.82,32.43,500S242.18,32.44,500,32.44,967.57,242.18,967.57,500,757.82,967.56,500,967.56Zm0-921.2C249.86,46.36,46.36,249.86,46.36,500S249.86,953.64,500,953.64,953.64,750.14,953.64,500,750.14,46.36,500,46.36Z"/>
  <path d="M500,823.73C321.5,823.73,176.28,678.5,176.28,500S321.5,176.27,500,176.27,823.73,321.5,823.73,500,678.5,823.73,500,823.73Zm0-633.53c-170.82,0-309.8,139-309.8,309.8s139,309.8,309.8,309.8,309.8-139,309.8-309.8S670.83,190.2,500,190.2Z"/>
</svg>
