<?xml version="1.0" encoding="iso-8859-1"?>
<!-- Generator: Adobe Illustrator 19.2.1, SVG Export Plug-In . SVG Version: 6.00 Build 0)  -->
<svg version="1.1" id="&#x421;&#x43B;&#x43E;&#x439;_1"
	 xmlns="http://www.w3.org/2000/svg" xmlns:xlink="http://www.w3.org/1999/xlink" x="0px" y="0px" viewBox="0 0 300 300"
	 style="enable-background:new 0 0 300 300;" xml:space="preserve">
<g>
	<path d="M119.11,161.206c0.014,8.415,6.87,15.258,15.297,15.258c8.386,0,15.211-6.778,15.291-15.137
		c-0.007-0.069-0.021-0.135-0.021-0.206v-47.756c0-8.419-6.856-15.268-15.283-15.268s-15.283,6.849-15.283,15.268V161.206z"/>
	<path d="M187.175,175.596c-0.316,0.195-0.674,0.293-1.034,0.293c-0.301,0-0.602-0.069-0.879-0.207
		c-0.565-0.283-0.961-0.821-1.063-1.445c-0.021-0.129-0.029-0.261-0.024-0.39V158.27V51.225c0-8.419-6.856-15.268-15.283-15.268
		s-15.283,6.849-15.283,15.268v109.676c0.013,0.092,0.028,0.184,0.028,0.279c0,10.596-8.627,19.216-19.231,19.216
		c-7.563,0-14.102-4.396-17.24-10.756c-3.061,6.522-9.677,11.06-17.35,11.06c-10.57,0-19.17-8.592-19.17-19.154
		c0-0.115,0.015-0.227,0.034-0.337v-40.686c0-0.009-0.003-0.017-0.003-0.025c0-0.017,0.002-0.033,0.003-0.05V74.941
		c0-0.009-0.003-0.017-0.003-0.025c0-8.419-6.856-15.268-15.283-15.268c-8.424,0-15.278,6.844-15.283,15.259
		c0,0.003,0.001,0.006,0.001,0.008v108.98c0,0.003-0.001,0.007-0.001,0.01c0.006,44.189,35.99,80.137,80.22,80.137
		c15.592,0,30.708-4.471,43.714-12.933c7.32-4.762,13.785-10.652,19.217-17.504c8.232-11.079,52.918-73.675,53.369-74.307
		c0.007-0.01,0.017-0.018,0.024-0.028c0.009-0.013,0.015-0.027,0.025-0.039c4.718-6.056,4.173-14.721-1.267-20.157
		c-5.96-5.954-15.656-5.954-21.615,0l-36.196,36.163C187.48,175.376,187.336,175.496,187.175,175.596z"/>
	<path d="M84.583,161.607c0.034,8.365,6.853,15.16,15.234,15.16c8.402,0,15.238-6.828,15.238-15.222
		c0-0.234,0.048-0.455,0.123-0.663v-40.385c0-8.419-6.856-15.268-15.283-15.268c-8.41,0-15.253,6.822-15.281,15.217v40.855
		C84.614,161.407,84.599,161.507,84.583,161.607z"/>
</g>
</svg>
